<svg id="SvgjsSvg1006" width="753" height="605" xmlns="http://www.w3.org/2000/svg" version="1.1" xmlns:xlink="http://www.w3.org/1999/xlink" xmlns:svgjs="http://svgjs.com/svgjs"><defs id="SvgjsDefs1007"></defs><g id="SvgjsG1008" transform="translate(28,459)"><path id="SvgjsPath1009" d="M 0 4Q 0 0 4 0L 696 0Q 700 0 700 4L 700 23Q 700 27 696 27L 4 27Q 0 27 0 23Z" stroke="rgba(50,50,50,1)" stroke-width="2" fill-opacity="1" fill="#ffffff"></path><g id="SvgjsG1010"><text id="SvgjsText1011" font-family="微软雅黑" text-anchor="middle" font-size="13px" width="680px" fill="#323232" font-weight="400" align="middle" lineHeight="125%" anchor="middle" family="微软雅黑" size="13px" weight="400" font-style="" opacity="1" y="2.875" transform="rotate(0)"><tspan id="SvgjsTspan1012" dy="16" x="350"><tspan id="SvgjsTspan1013" style="text-decoration:;">全局工具</tspan></tspan></text></g></g><g id="SvgjsG1014" transform="translate(28,365)"><path id="SvgjsPath1015" d="M 0 4Q 0 0 4 0L 148 0Q 152 0 152 4L 152 66Q 152 70 148 70L 4 70Q 0 70 0 66Z" stroke="rgba(50,50,50,1)" stroke-width="2" fill-opacity="1" fill="#ffffff"></path><g id="SvgjsG1016"><text id="SvgjsText1017" font-family="微软雅黑" text-anchor="middle" font-size="13px" width="132px" fill="#323232" font-weight="400" align="middle" lineHeight="125%" anchor="middle" family="微软雅黑" size="13px" weight="400" font-style="" opacity="1" y="24.375" transform="rotate(0)"><tspan id="SvgjsTspan1018" dy="16" x="76"><tspan id="SvgjsTspan1019" style="text-decoration:;">IMG下载器</tspan></tspan></text></g></g><g id="SvgjsG1020" transform="translate(25,247)"><path id="SvgjsPath1021" d="M 0 4Q 0 0 4 0L 345 0Q 349 0 349 4L 349 85Q 349 89 345 89L 4 89Q 0 89 0 85Z" stroke="rgba(50,50,50,1)" stroke-width="2" fill-opacity="1" fill="#ffffff"></path><g id="SvgjsG1022"><text id="SvgjsText1023" font-family="微软雅黑" text-anchor="middle" font-size="13px" width="329px" fill="#323232" font-weight="400" align="middle" lineHeight="125%" anchor="middle" family="微软雅黑" size="13px" weight="400" font-style="" opacity="1" y="33.875" transform="rotate(0)"><tspan id="SvgjsTspan1024" dy="16" x="174.5"><tspan id="SvgjsTspan1025" style="text-decoration:;">数据分析器</tspan></tspan></text></g></g><g id="SvgjsG1026" transform="translate(25,135)"><path id="SvgjsPath1027" d="M 0 4Q 0 0 4 0L 699 0Q 703 0 703 4L 703 78Q 703 82 699 82L 4 82Q 0 82 0 78Z" stroke="rgba(50,50,50,1)" stroke-width="2" fill-opacity="1" fill="#ffffff"></path><g id="SvgjsG1028"><text id="SvgjsText1029" font-family="微软雅黑" text-anchor="middle" font-size="13px" width="683px" fill="#323232" font-weight="400" align="middle" lineHeight="125%" anchor="middle" family="微软雅黑" size="13px" weight="400" font-style="" opacity="1" y="30.375" transform="rotate(0)"><tspan id="SvgjsTspan1030" dy="16" x="351.5"><tspan id="SvgjsTspan1031" style="text-decoration:;">协调器</tspan></tspan></text></g></g><g id="SvgjsG1032" transform="translate(406,247)"><path id="SvgjsPath1033" d="M 0 4Q 0 0 4 0L 118 0Q 122 0 122 4L 122 184Q 122 188 118 188L 4 188Q 0 188 0 184Z" stroke="rgba(50,50,50,1)" stroke-width="2" fill-opacity="1" fill="#ffffff"></path><g id="SvgjsG1034"><text id="SvgjsText1035" font-family="微软雅黑" text-anchor="middle" font-size="13px" width="102px" fill="#323232" font-weight="400" align="middle" lineHeight="125%" anchor="middle" family="微软雅黑" size="13px" weight="400" font-style="" opacity="1" y="83.375" transform="rotate(0)"><tspan id="SvgjsTspan1036" dy="16" x="61"><tspan id="SvgjsTspan1037" style="text-decoration:;">数据控制器</tspan></tspan></text></g></g><g id="SvgjsG1038" transform="translate(559,365)"><path id="SvgjsPath1039" d="M 0 4Q 0 0 4 0L 165 0Q 169 0 169 4L 169 66Q 169 70 165 70L 4 70Q 0 70 0 66Z" stroke="rgba(50,50,50,1)" stroke-width="2" fill-opacity="1" fill="#ffffff"></path><g id="SvgjsG1040"><text id="SvgjsText1041" font-family="微软雅黑" text-anchor="middle" font-size="13px" width="149px" fill="#323232" font-weight="400" align="middle" lineHeight="125%" anchor="middle" family="微软雅黑" size="13px" weight="400" font-style="" opacity="1" y="24.375" transform="rotate(0)"><tspan id="SvgjsTspan1042" dy="16" x="84.5"><tspan id="SvgjsTspan1043" style="text-decoration:;">数据库</tspan></tspan></text></g></g><g id="SvgjsG1044" transform="translate(559,247)"><path id="SvgjsPath1045" d="M 0 4Q 0 0 4 0L 165 0Q 169 0 169 4L 169 79Q 169 83 165 83L 4 83Q 0 83 0 79Z" stroke="rgba(50,50,50,1)" stroke-width="2" fill-opacity="1" fill="#ffffff"></path><g id="SvgjsG1046"><text id="SvgjsText1047" font-family="微软雅黑" text-anchor="middle" font-size="13px" width="149px" fill="#323232" font-weight="400" align="middle" lineHeight="125%" anchor="middle" family="微软雅黑" size="13px" weight="400" font-style="" opacity="1" y="30.875" transform="rotate(0)"><tspan id="SvgjsTspan1048" dy="16" x="84.5"><tspan id="SvgjsTspan1049" style="text-decoration:;">Web接口</tspan></tspan></text></g></g><g id="SvgjsG1050" transform="translate(222,365)"><path id="SvgjsPath1051" d="M 0 4Q 0 0 4 0L 148 0Q 152 0 152 4L 152 66Q 152 70 148 70L 4 70Q 0 70 0 66Z" stroke="rgba(50,50,50,1)" stroke-width="2" fill-opacity="1" fill="#ffffff"></path><g id="SvgjsG1052"><text id="SvgjsText1053" font-family="微软雅黑" text-anchor="middle" font-size="13px" width="132px" fill="#323232" font-weight="400" align="middle" lineHeight="125%" anchor="middle" family="微软雅黑" size="13px" weight="400" font-style="" opacity="1" y="24.375" transform="rotate(0)"><tspan id="SvgjsTspan1054" dy="16" x="76"><tspan id="SvgjsTspan1055" style="text-decoration:;">HTML下载器</tspan></tspan></text></g></g><g id="SvgjsG1056" transform="translate(559,510)"><path id="SvgjsPath1057" d="M 0 4Q 0 0 4 0L 165 0Q 169 0 169 4L 169 66Q 169 70 165 70L 4 70Q 0 70 0 66Z" stroke="rgba(50,50,50,1)" stroke-width="2" fill-opacity="1" fill="#ffffff"></path><g id="SvgjsG1058"><text id="SvgjsText1059" font-family="微软雅黑" text-anchor="middle" font-size="13px" width="149px" fill="#323232" font-weight="400" align="middle" lineHeight="125%" anchor="middle" family="微软雅黑" size="13px" weight="400" font-style="" opacity="1" y="24.375" transform="rotate(0)"><tspan id="SvgjsTspan1060" dy="16" x="84.5"><tspan id="SvgjsTspan1061" style="text-decoration:;">数据模型</tspan></tspan></text></g></g><g id="SvgjsG1062" transform="translate(406,510)"><path id="SvgjsPath1063" d="M 0 4Q 0 0 4 0L 118 0Q 122 0 122 4L 122 66Q 122 70 118 70L 4 70Q 0 70 0 66Z" stroke="rgba(50,50,50,1)" stroke-width="2" fill-opacity="1" fill="#ffffff"></path><g id="SvgjsG1064"><text id="SvgjsText1065" font-family="微软雅黑" text-anchor="middle" font-size="13px" width="102px" fill="#323232" font-weight="400" align="middle" lineHeight="125%" anchor="middle" family="微软雅黑" size="13px" weight="400" font-style="" opacity="1" y="24.375" transform="rotate(0)"><tspan id="SvgjsTspan1066" dy="16" x="61"><tspan id="SvgjsTspan1067" style="text-decoration:;">日志接口</tspan></tspan></text></g></g><g id="SvgjsG1068" transform="translate(222,510)"><path id="SvgjsPath1069" d="M 0 4Q 0 0 4 0L 148 0Q 152 0 152 4L 152 66Q 152 70 148 70L 4 70Q 0 70 0 66Z" stroke="rgba(50,50,50,1)" stroke-width="2" fill-opacity="1" fill="#ffffff"></path><g id="SvgjsG1070"><text id="SvgjsText1071" font-family="微软雅黑" text-anchor="middle" font-size="13px" width="132px" fill="#323232" font-weight="400" align="middle" lineHeight="125%" anchor="middle" family="微软雅黑" size="13px" weight="400" font-style="" opacity="1" y="24.375" transform="rotate(0)"><tspan id="SvgjsTspan1072" dy="16" x="76"><tspan id="SvgjsTspan1073" style="text-decoration:;">信号传递器</tspan></tspan></text></g></g><g id="SvgjsG1074" transform="translate(28,510)"><path id="SvgjsPath1075" d="M 0 4Q 0 0 4 0L 148 0Q 152 0 152 4L 152 66Q 152 70 148 70L 4 70Q 0 70 0 66Z" stroke="rgba(50,50,50,1)" stroke-width="2" fill-opacity="1" fill="#ffffff"></path><g id="SvgjsG1076"><text id="SvgjsText1077" font-family="微软雅黑" text-anchor="middle" font-size="13px" width="132px" fill="#323232" font-weight="400" align="middle" lineHeight="125%" anchor="middle" family="微软雅黑" size="13px" weight="400" font-style="" opacity="1" y="24.375" transform="rotate(0)"><tspan id="SvgjsTspan1078" dy="16" x="76"><tspan id="SvgjsTspan1079" style="text-decoration:;">配置文件</tspan></tspan></text></g></g><g id="SvgjsG1080" transform="translate(329.5,25)"><path id="SvgjsPath1081" d="M 0 47C 0 -15.666666666666666 94 -15.666666666666666 94 47C 94 109.66666666666667 0 109.66666666666667 0 47Z" stroke="rgba(50,50,50,1)" stroke-width="2" fill-opacity="1" fill="#ffffff"></path><g id="SvgjsG1082"><text id="SvgjsText1083" font-family="微软雅黑" text-anchor="middle" font-size="13px" width="74px" fill="#323232" font-weight="400" align="middle" lineHeight="125%" anchor="middle" family="微软雅黑" size="13px" weight="400" font-style="" opacity="1" y="36.375" transform="rotate(0)"><tspan id="SvgjsTspan1084" dy="16" x="47"><tspan id="SvgjsTspan1085" style="text-decoration:;">输入入口</tspan></tspan></text></g></g></svg>