<svg id="SvgjsSvg1006" width="1205.984375" height="1073.765625" xmlns="http://www.w3.org/2000/svg" version="1.1" xmlns:xlink="http://www.w3.org/1999/xlink" xmlns:svgjs="http://svgjs.com/svgjs"><defs id="SvgjsDefs1007"><marker id="SvgjsMarker1109" markerWidth="14" markerHeight="10" refX="10" refY="5" viewBox="0 0 14 10" orient="auto" markerUnits="userSpaceOnUse" stroke-dasharray="0,0"><path id="SvgjsPath1110" d="M0,0 L14,5 L0,10 L0,0" fill="#323232" stroke="#323232" stroke-width="1"></path></marker><marker id="SvgjsMarker1113" markerWidth="14" markerHeight="10" refX="10" refY="5" viewBox="0 0 14 10" orient="auto" markerUnits="userSpaceOnUse" stroke-dasharray="0,0"><path id="SvgjsPath1114" d="M0,0 L14,5 L0,10 L0,0" fill="#323232" stroke="#323232" stroke-width="1"></path></marker><marker id="SvgjsMarker1117" markerWidth="14" markerHeight="10" refX="10" refY="5" viewBox="0 0 14 10" orient="auto" markerUnits="userSpaceOnUse" stroke-dasharray="0,0"><path id="SvgjsPath1118" d="M0,0 L14,5 L0,10 L0,0" fill="#323232" stroke="#323232" stroke-width="1"></path></marker><marker id="SvgjsMarker1121" markerWidth="14" markerHeight="10" refX="10" refY="5" viewBox="0 0 14 10" orient="auto" markerUnits="userSpaceOnUse" stroke-dasharray="0,0"><path id="SvgjsPath1122" d="M0,0 L14,5 L0,10 L0,0" fill="#323232" stroke="#323232" stroke-width="1"></path></marker><marker id="SvgjsMarker1125" markerWidth="14" markerHeight="10" refX="10" refY="5" viewBox="0 0 14 10" orient="auto" markerUnits="userSpaceOnUse" stroke-dasharray="0,0"><path id="SvgjsPath1126" d="M0,0 L14,5 L0,10 L0,0" fill="#323232" stroke="#323232" stroke-width="1"></path></marker><marker id="SvgjsMarker1129" markerWidth="14" markerHeight="10" refX="10" refY="5" viewBox="0 0 14 10" orient="auto" markerUnits="userSpaceOnUse" stroke-dasharray="0,0"><path id="SvgjsPath1130" d="M0,0 L14,5 L0,10 L0,0" fill="#323232" stroke="#323232" stroke-width="1"></path></marker><marker id="SvgjsMarker1133" markerWidth="14" markerHeight="10" refX="10" refY="5" viewBox="0 0 14 10" orient="auto" markerUnits="userSpaceOnUse" stroke-dasharray="0,0"><path id="SvgjsPath1134" d="M0,0 L14,5 L0,10 L0,0" fill="#323232" stroke="#323232" stroke-width="1"></path></marker><marker id="SvgjsMarker1161" markerWidth="14" markerHeight="10" refX="10" refY="5" viewBox="0 0 14 10" orient="auto" markerUnits="userSpaceOnUse" stroke-dasharray="0,0"><path id="SvgjsPath1162" d="M0,0 L14,5 L0,10 L0,0" fill="#323232" stroke="#323232" stroke-width="1"></path></marker><marker id="SvgjsMarker1165" markerWidth="14" markerHeight="10" refX="10" refY="5" viewBox="0 0 14 10" orient="auto" markerUnits="userSpaceOnUse" stroke-dasharray="0,0"><path id="SvgjsPath1166" d="M0,0 L14,5 L0,10 L0,0" fill="#323232" stroke="#323232" stroke-width="1"></path></marker><marker id="SvgjsMarker1169" markerWidth="14" markerHeight="10" refX="10" refY="5" viewBox="0 0 14 10" orient="auto" markerUnits="userSpaceOnUse" stroke-dasharray="0,0"><path id="SvgjsPath1170" d="M0,0 L14,5 L0,10 L0,0" fill="#323232" stroke="#323232" stroke-width="1"></path></marker><marker id="SvgjsMarker1177" markerWidth="14" markerHeight="10" refX="10" refY="5" viewBox="0 0 14 10" orient="auto" markerUnits="userSpaceOnUse" stroke-dasharray="0,0"><path id="SvgjsPath1178" d="M0,0 L14,5 L0,10 L0,0" fill="#323232" stroke="#323232" stroke-width="1"></path></marker><marker id="SvgjsMarker1185" markerWidth="14" markerHeight="10" refX="10" refY="5" viewBox="0 0 14 10" orient="auto" markerUnits="userSpaceOnUse" stroke-dasharray="0,0"><path id="SvgjsPath1186" d="M0,0 L14,5 L0,10 L0,0" fill="#323232" stroke="#323232" stroke-width="1"></path></marker><marker id="SvgjsMarker1201" markerWidth="14" markerHeight="10" refX="10" refY="5" viewBox="0 0 14 10" orient="auto" markerUnits="userSpaceOnUse" stroke-dasharray="0,0"><path id="SvgjsPath1202" d="M0,0 L14,5 L0,10 L0,0" fill="#323232" stroke="#323232" stroke-width="1"></path></marker><marker id="SvgjsMarker1205" markerWidth="14" markerHeight="10" refX="10" refY="5" viewBox="0 0 14 10" orient="auto" markerUnits="userSpaceOnUse" stroke-dasharray="0,0"><path id="SvgjsPath1206" d="M0,0 L14,5 L0,10 L0,0" fill="#323232" stroke="#323232" stroke-width="1"></path></marker><marker id="SvgjsMarker1215" markerWidth="14" markerHeight="10" refX="10" refY="5" viewBox="0 0 14 10" orient="auto" markerUnits="userSpaceOnUse" stroke-dasharray="0,0"><path id="SvgjsPath1216" d="M0,0 L14,5 L0,10 L0,0" fill="#323232" stroke="#323232" stroke-width="1"></path></marker><marker id="SvgjsMarker1219" markerWidth="14" markerHeight="10" refX="10" refY="5" viewBox="0 0 14 10" orient="auto" markerUnits="userSpaceOnUse" stroke-dasharray="0,0"><path id="SvgjsPath1220" d="M0,0 L14,5 L0,10 L0,0" fill="#323232" stroke="#323232" stroke-width="1"></path></marker><marker id="SvgjsMarker1223" markerWidth="14" markerHeight="10" refX="10" refY="5" viewBox="0 0 14 10" orient="auto" markerUnits="userSpaceOnUse" stroke-dasharray="0,0"><path id="SvgjsPath1224" d="M0,0 L14,5 L0,10 L0,0" fill="#323232" stroke="#323232" stroke-width="1"></path></marker><marker id="SvgjsMarker1233" markerWidth="14" markerHeight="10" refX="10" refY="5" viewBox="0 0 14 10" orient="auto" markerUnits="userSpaceOnUse" stroke-dasharray="0,0"><path id="SvgjsPath1234" d="M0,0 L14,5 L0,10 L0,0" fill="#323232" stroke="#323232" stroke-width="1"></path></marker><marker id="SvgjsMarker1249" markerWidth="14" markerHeight="10" refX="10" refY="5" viewBox="0 0 14 10" orient="auto" markerUnits="userSpaceOnUse" stroke-dasharray="0,0"><path id="SvgjsPath1250" d="M0,0 L14,5 L0,10 L0,0" fill="#323232" stroke="#323232" stroke-width="1"></path></marker><marker id="SvgjsMarker1253" markerWidth="14" markerHeight="10" refX="10" refY="5" viewBox="0 0 14 10" orient="auto" markerUnits="userSpaceOnUse" stroke-dasharray="0,0"><path id="SvgjsPath1254" d="M0,0 L14,5 L0,10 L0,0" fill="#323232" stroke="#323232" stroke-width="1"></path></marker><marker id="SvgjsMarker1313" markerWidth="14" markerHeight="10" refX="10" refY="5" viewBox="0 0 14 10" orient="auto" markerUnits="userSpaceOnUse" stroke-dasharray="0,0"><path id="SvgjsPath1314" d="M0,0 L14,5 L0,10 L0,0" fill="#323232" stroke="#323232" stroke-width="1"></path></marker><marker id="SvgjsMarker1317" markerWidth="14" markerHeight="10" refX="10" refY="5" viewBox="0 0 14 10" orient="auto" markerUnits="userSpaceOnUse" stroke-dasharray="0,0"><path id="SvgjsPath1318" d="M0,0 L14,5 L0,10 L0,0" fill="#323232" stroke="#323232" stroke-width="1"></path></marker><marker id="SvgjsMarker1321" markerWidth="14" markerHeight="10" refX="10" refY="5" viewBox="0 0 14 10" orient="auto" markerUnits="userSpaceOnUse" stroke-dasharray="0,0"><path id="SvgjsPath1322" d="M0,0 L14,5 L0,10 L0,0" fill="#323232" stroke="#323232" stroke-width="1"></path></marker><marker id="SvgjsMarker1325" markerWidth="14" markerHeight="10" refX="10" refY="5" viewBox="0 0 14 10" orient="auto" markerUnits="userSpaceOnUse" stroke-dasharray="0,0"><path id="SvgjsPath1326" d="M0,0 L14,5 L0,10 L0,0" fill="#323232" stroke="#323232" stroke-width="1"></path></marker><marker id="SvgjsMarker1329" markerWidth="14" markerHeight="10" refX="10" refY="5" viewBox="0 0 14 10" orient="auto" markerUnits="userSpaceOnUse" stroke-dasharray="0,0"><path id="SvgjsPath1330" d="M0,0 L14,5 L0,10 L0,0" fill="#323232" stroke="#323232" stroke-width="1"></path></marker><marker id="SvgjsMarker1333" markerWidth="14" markerHeight="10" refX="10" refY="5" viewBox="0 0 14 10" orient="auto" markerUnits="userSpaceOnUse" stroke-dasharray="0,0"><path id="SvgjsPath1334" d="M0,0 L14,5 L0,10 L0,0" fill="#323232" stroke="#323232" stroke-width="1"></path></marker></defs><g id="SvgjsG1008" transform="translate(611.1232638888887,142.76736111111106)"><path id="SvgjsPath1009" d="M 0 0L 250 0L 250 905.5277777777776L 0 905.5277777777776Z" stroke="rgba(50,50,50,1)" stroke-width="2" fill="none"></path><path id="SvgjsPath1010" d="M 0 0L 250 0L 250 40L 0 40Z" stroke="rgba(50,50,50,1)" stroke-width="2" fill-opacity="1" fill="#ffffff"></path><g id="SvgjsG1011"><text id="SvgjsText1012" font-family="微软雅黑" text-anchor="middle" font-size="16px" width="230px" fill="#323232" font-weight="400" align="middle" lineHeight="125%" anchor="middle" family="微软雅黑" size="16px" weight="400" font-style="" opacity="1" y="6" transform="rotate(0)"><tspan id="SvgjsTspan1013" dy="20" x="125"><tspan id="SvgjsTspan1014" style="text-decoration:;">数据库层</tspan></tspan></text></g></g><g id="SvgjsG1015" transform="translate(611.1232638888887,182.76736111111103)"><path id="SvgjsPath1016" d="M 0 0L 250 0L 250 865.5277777777776L 0 865.5277777777776Z" stroke="rgba(50,50,50,1)" stroke-width="2" fill="none"></path><path id="SvgjsPath1017" d="M 0 0L 250 0L 250 30L 0 30Z" stroke="rgba(50,50,50,1)" stroke-width="2" fill-opacity="1" fill="#ffffff"></path><g id="SvgjsG1018"><text id="SvgjsText1019" font-family="微软雅黑" text-anchor="middle" font-size="13px" width="230px" fill="#323232" font-weight="400" align="middle" lineHeight="125%" anchor="middle" family="微软雅黑" size="13px" weight="400" font-style="" opacity="1" y="4.375" transform="rotate(0)"><tspan id="SvgjsTspan1020" dy="16" x="125"><tspan id="SvgjsTspan1021" style="text-decoration:;">MySQL</tspan></tspan></text></g></g><g id="SvgjsG1022" transform="translate(25.004216269841436,25.00545634920637)"><path id="SvgjsPath1023" d="M 0 0L 224.28571428571433 0L 224.28571428571433 1023.2896825396824L 0 1023.2896825396824Z" stroke="rgba(50,50,50,1)" stroke-width="2" fill="none"></path><path id="SvgjsPath1024" d="M 0 0L 224.28571428571433 0L 224.28571428571433 40L 0 40Z" stroke="rgba(50,50,50,1)" stroke-width="2" fill-opacity="1" fill="#ffffff"></path><g id="SvgjsG1025"><text id="SvgjsText1026" font-family="微软雅黑" text-anchor="middle" font-size="16px" width="205px" fill="#323232" font-weight="400" align="middle" lineHeight="125%" anchor="middle" family="微软雅黑" size="16px" weight="400" font-style="" opacity="1" y="6" transform="rotate(0)"><tspan id="SvgjsTspan1027" dy="20" x="112.5"><tspan id="SvgjsTspan1028" style="text-decoration:;">分析层</tspan></tspan></text></g></g><g id="SvgjsG1029" transform="translate(45.004216269841436,65.00545634920636)"><path id="SvgjsPath1030" d="M 0 0L 204.28571428571433 0L 204.28571428571433 983.2896825396824L 0 983.2896825396824Z" stroke="rgba(50,50,50,1)" stroke-width="2" fill="none"></path><path id="SvgjsPath1031" d="M 0 0L 204.28571428571433 0L 204.28571428571433 30L 0 30Z" stroke="rgba(50,50,50,1)" stroke-width="2" fill-opacity="1" fill="#ffffff"></path><g id="SvgjsG1032"><text id="SvgjsText1033" font-family="微软雅黑" text-anchor="middle" font-size="13px" width="185px" fill="#323232" font-weight="400" align="middle" lineHeight="125%" anchor="middle" family="微软雅黑" size="13px" weight="400" font-style="" opacity="1" y="4.375" transform="rotate(0)"><tspan id="SvgjsTspan1034" dy="16" x="102.5"><tspan id="SvgjsTspan1035" style="text-decoration:;">逻辑泳道</tspan></tspan></text></g></g><g id="SvgjsG1036" transform="translate(25.004216269841436,65.00545634920637)"><path id="SvgjsPath1037" d="M 0 0L 20 0L 20 983.2896825396824L 0 983.2896825396824Z" stroke="rgba(50,50,50,1)" stroke-width="2" fill-opacity="1" fill="#ffffff"></path></g><g id="SvgjsG1038" transform="translate(25.004216269841436,65.00545634920637)"><path id="SvgjsPath1039" d="M 0 323.37301587301585L 224.28571428571433 323.37301587301585" stroke="rgba(50,50,50,1)" stroke-width="2" fill="none"></path><path id="SvgjsPath1040" d="M 0 0L 20 0L 20 323.37301587301585L 0 323.37301587301585Z" stroke="rgba(50,50,50,1)" stroke-width="2" fill-opacity="1" fill="#ffffff"></path><g id="SvgjsG1041"><text id="SvgjsText1042" font-family="微软雅黑" text-anchor="start" font-size="13px" width="314px" fill="#323232" font-weight="400" align="middle" lineHeight="125%" anchor="start" family="微软雅黑" size="13px" weight="400" font-style="" opacity="1" y="-0.625" transform="rotate(270)"><tspan id="SvgjsTspan1043" dy="16" x="-318.37301587301585"><tspan id="SvgjsTspan1044" style="text-decoration:;">网络分析阶段</tspan></tspan></text></g></g><g id="SvgjsG1045" transform="translate(25.004216269841436,846.15625)"><path id="SvgjsPath1046" d="M 0 202.1388888888887L 224.28571428571433 202.1388888888887" stroke="rgba(50,50,50,1)" stroke-width="2" fill="none"></path><path id="SvgjsPath1047" d="M 0 0L 20 0L 20 202.1388888888887L 0 202.1388888888887Z" stroke="rgba(50,50,50,1)" stroke-width="2" fill-opacity="1" fill="#ffffff"></path><g id="SvgjsG1048"><text id="SvgjsText1049" font-family="微软雅黑" text-anchor="start" font-size="13px" width="193px" fill="#323232" font-weight="400" align="middle" lineHeight="125%" anchor="start" family="微软雅黑" size="13px" weight="400" font-style="" opacity="1" y="-0.625" transform="rotate(270)"><tspan id="SvgjsTspan1050" dy="16" x="-197.1388888888887"><tspan id="SvgjsTspan1051" style="text-decoration:;">保存阶段</tspan></tspan></text></g></g><g id="SvgjsG1052" transform="translate(25.004216269841436,388.37847222222223)"><path id="SvgjsPath1053" d="M 0 457.77777777777777L 224.28571428571433 457.77777777777777" stroke="rgba(50,50,50,1)" stroke-width="2" fill="none"></path><path id="SvgjsPath1054" d="M 0 0L 20 0L 20 457.77777777777777L 0 457.77777777777777Z" stroke="rgba(50,50,50,1)" stroke-width="2" fill-opacity="1" fill="#ffffff"></path><g id="SvgjsG1055"><text id="SvgjsText1056" font-family="微软雅黑" text-anchor="start" font-size="13px" width="448px" fill="#323232" font-weight="400" align="middle" lineHeight="125%" anchor="start" family="微软雅黑" size="13px" weight="400" font-style="" opacity="1" y="-0.625" transform="rotate(270)"><tspan id="SvgjsTspan1057" dy="16" x="-452.77777777777777"><tspan id="SvgjsTspan1058" style="text-decoration:;">爬取阶段</tspan></tspan></text></g></g><g id="SvgjsG1059" transform="translate(99.06770833333348,511.87847222222103)"><path id="SvgjsPath1060" d="M 0 0L 100 0L 100 70L 0 70Z" stroke="rgba(50,50,50,1)" stroke-width="2" fill-opacity="1" fill="#ffffff"></path><g id="SvgjsG1061"><text id="SvgjsText1062" font-family="微软雅黑" text-anchor="middle" font-size="13px" width="80px" fill="#323232" font-weight="400" align="middle" lineHeight="125%" anchor="middle" family="微软雅黑" size="13px" weight="400" font-style="" opacity="1" y="24.375" transform="rotate(0)"><tspan id="SvgjsTspan1063" dy="16" x="50"><tspan id="SvgjsTspan1064" style="text-decoration:;">爬取信息</tspan></tspan></text></g></g><g id="SvgjsG1065" transform="translate(99.06770833333348,133.87847222222217)"><path id="SvgjsPath1066" d="M 16.666666666666668 0L 83.33333333333333 0C 105.55555555555556 0 105.55555555555556 50 83.33333333333333 50L 16.666666666666668 50C -5.555555555555556 50 -5.555555555555556 0 16.666666666666668 0Z" stroke="rgba(50,50,50,1)" stroke-width="2" fill-opacity="1" fill="#ffffff"></path><g id="SvgjsG1067"><text id="SvgjsText1068" font-family="微软雅黑" text-anchor="middle" font-size="13px" width="80px" fill="#323232" font-weight="400" align="middle" lineHeight="125%" anchor="middle" family="微软雅黑" size="13px" weight="400" font-style="" opacity="1" y="14.375" transform="rotate(0)"><tspan id="SvgjsTspan1069" dy="16" x="50"><tspan id="SvgjsTspan1070" style="text-decoration:;">GET整个网页</tspan></tspan></text></g></g><g id="SvgjsG1071" transform="translate(78.56770833333348,299.8784722222222)"><path id="SvgjsPath1072" d="M 0 0L 141 0L 141 61L 0 61Z" stroke="rgba(50,50,50,1)" stroke-width="2" fill-opacity="1" fill="#ffffff"></path><g id="SvgjsG1073"><text id="SvgjsText1074" font-family="微软雅黑" text-anchor="middle" font-size="13px" width="121px" fill="#323232" font-weight="400" align="middle" lineHeight="125%" anchor="middle" family="微软雅黑" size="13px" weight="400" font-style="" opacity="1" y="19.875" transform="rotate(0)"><tspan id="SvgjsTspan1075" dy="16" x="70.5"><tspan id="SvgjsTspan1076" style="text-decoration:;">获取HTML内容</tspan></tspan></text></g></g><g id="SvgjsG1077" transform="translate(78.56770833333348,211.37847222222211)"><path id="SvgjsPath1078" d="M 0 0L 141 0L 141 61L 0 61Z" stroke="rgba(50,50,50,1)" stroke-width="2" fill-opacity="1" fill="#ffffff"></path><g id="SvgjsG1079"><text id="SvgjsText1080" font-family="微软雅黑" text-anchor="middle" font-size="13px" width="121px" fill="#323232" font-weight="400" align="middle" lineHeight="125%" anchor="middle" family="微软雅黑" size="13px" weight="400" font-style="" opacity="1" y="19.875" transform="rotate(0)"><tspan id="SvgjsTspan1081" dy="16" x="70.5"><tspan id="SvgjsTspan1082" style="text-decoration:;">构建简单DOM树</tspan></tspan></text></g></g><g id="SvgjsG1083" transform="translate(99.06770833333348,409.12847222222183)"><path id="SvgjsPath1084" d="M 0 35L 16.666666666666668 0L 83.33333333333333 0L 100 35L 83.33333333333333 70L 16.666666666666668 70L 0 35Z" stroke="rgba(50,50,50,1)" stroke-width="2" fill-opacity="1" fill="#ffffff"></path><g id="SvgjsG1085"><text id="SvgjsText1086" font-family="微软雅黑" text-anchor="middle" font-size="13px" width="80px" fill="#323232" font-weight="400" align="middle" lineHeight="125%" anchor="middle" family="微软雅黑" size="13px" weight="400" font-style="" opacity="1" y="24.375" transform="rotate(0)"><tspan id="SvgjsTspan1087" dy="16" x="50"><tspan id="SvgjsTspan1088" style="text-decoration:;">确定目标内容</tspan></tspan></text></g></g><g id="SvgjsG1089" transform="translate(328.0677083333335,375.8784722222221)"><path id="SvgjsPath1090" d="M 0 0L 99 0L 99 62L 0 62Z" stroke="rgba(50,50,50,1)" stroke-width="2" fill-opacity="1" fill="#ffffff"></path><g id="SvgjsG1091"><text id="SvgjsText1092" font-family="微软雅黑" text-anchor="middle" font-size="13px" width="79px" fill="#323232" font-weight="400" align="middle" lineHeight="125%" anchor="middle" family="微软雅黑" size="13px" weight="400" font-style="" opacity="1" y="20.375" transform="rotate(0)"><tspan id="SvgjsTspan1093" dy="16" x="49.5"><tspan id="SvgjsTspan1094" style="text-decoration:;">href引用</tspan></tspan></text></g></g><g id="SvgjsG1095" transform="translate(328.0677083333335,466.87847222222183)"><path id="SvgjsPath1096" d="M 0 0L 99 0L 99 62L 0 62Z" stroke="rgba(50,50,50,1)" stroke-width="2" fill-opacity="1" fill="#ffffff"></path><g id="SvgjsG1097"><text id="SvgjsText1098" font-family="微软雅黑" text-anchor="middle" font-size="13px" width="79px" fill="#323232" font-weight="400" align="middle" lineHeight="125%" anchor="middle" family="微软雅黑" size="13px" weight="400" font-style="" opacity="1" y="20.375" transform="rotate(0)"><tspan id="SvgjsTspan1099" dy="16" x="49.5"><tspan id="SvgjsTspan1100" style="text-decoration:;">img标签</tspan></tspan></text></g></g><g id="SvgjsG1101" transform="translate(328.0677083333335,557.8784722222221)"><path id="SvgjsPath1102" d="M 0 0L 99 0L 99 62L 0 62Z" stroke="rgba(50,50,50,1)" stroke-width="2" fill-opacity="1" fill="#ffffff"></path><g id="SvgjsG1103"><text id="SvgjsText1104" font-family="微软雅黑" text-anchor="middle" font-size="13px" width="79px" fill="#323232" font-weight="400" align="middle" lineHeight="125%" anchor="middle" family="微软雅黑" size="13px" weight="400" font-style="" opacity="1" y="20.375" transform="rotate(0)"><tspan id="SvgjsTspan1105" dy="16" x="49.5"><tspan id="SvgjsTspan1106" style="text-decoration:;">title文字</tspan></tspan></text></g></g><g id="SvgjsG1107"><path id="SvgjsPath1108" d="M149.06770833333348 184.87847222222214L149.06770833333348 197.62847222222211L149.06770833333348 197.62847222222211L149.06770833333348 207.77847222222212" stroke="#323232" stroke-width="2" fill="none" marker-end="url(#SvgjsMarker1109)"></path></g><g id="SvgjsG1111"><path id="SvgjsPath1112" d="M149.06770833333348 273.3784722222222L149.06770833333348 286.1284722222222L149.06770833333348 286.1284722222222L149.06770833333348 296.27847222222215" stroke="#323232" stroke-width="2" fill="none" marker-end="url(#SvgjsMarker1113)"></path></g><g id="SvgjsG1115"><path id="SvgjsPath1116" d="M149.06770833333348 361.8784722222221L149.06770833333348 385.00347222222194L149.06770833333348 385.00347222222194L149.06770833333348 405.5284722222218" stroke="#323232" stroke-width="2" fill="none" marker-end="url(#SvgjsMarker1117)"></path></g><g id="SvgjsG1119"><path id="SvgjsPath1120" d="M327.0677083333335 406.8784722222221L263.5677083333335 406.8784722222221L263.5677083333335 444.1284722222219L202.6677083333335 444.1284722222219" stroke="#323232" stroke-width="2" fill="none" marker-end="url(#SvgjsMarker1121)"></path></g><g id="SvgjsG1123"><path id="SvgjsPath1124" d="M327.0677083333335 497.87847222222194L263.5677083333335 497.87847222222194L263.5677083333335 444.1284722222219L202.6677083333335 444.1284722222219" stroke="#323232" stroke-width="2" fill="none" marker-end="url(#SvgjsMarker1125)"></path></g><g id="SvgjsG1127"><path id="SvgjsPath1128" d="M327.0677083333335 588.8784722222221L263.5677083333335 588.8784722222221L263.5677083333335 444.1284722222219L202.6677083333335 444.1284722222219" stroke="#323232" stroke-width="2" fill="none" marker-end="url(#SvgjsMarker1129)"></path></g><g id="SvgjsG1131"><path id="SvgjsPath1132" d="M149.06770833333348 480.1284722222222L149.06770833333348 495.5034722222216L149.06770833333348 495.5034722222216L149.06770833333348 508.278472222221" stroke="#323232" stroke-width="2" fill="none" marker-end="url(#SvgjsMarker1133)"></path></g><g id="SvgjsG1135" transform="translate(99.06770833333348,627.8784722222214)"><path id="SvgjsPath1136" d="M 0 0L 100 0L 100 41.5L 0 41.5Z" stroke="rgba(50,50,50,1)" stroke-width="2" fill-opacity="1" fill="#ffffff"></path><g id="SvgjsG1137"><text id="SvgjsText1138" font-family="微软雅黑" text-anchor="middle" font-size="13px" width="80px" fill="#323232" font-weight="400" align="middle" lineHeight="125%" anchor="middle" family="微软雅黑" size="13px" weight="400" font-style="" opacity="1" y="10.125" transform="rotate(0)"><tspan id="SvgjsTspan1139" dy="16" x="50"><tspan id="SvgjsTspan1140" style="text-decoration:;">提取链接</tspan></tspan></text></g></g><g id="SvgjsG1141" transform="translate(99.06770833333348,777.3784722222231)"><path id="SvgjsPath1142" d="M 0 0L 100 0L 100 51L 0 51Z" stroke="rgba(50,50,50,1)" stroke-width="2" fill-opacity="1" fill="#ffffff"></path><g id="SvgjsG1143"><text id="SvgjsText1144" font-family="微软雅黑" text-anchor="middle" font-size="13px" width="80px" fill="#323232" font-weight="400" align="middle" lineHeight="125%" anchor="middle" family="微软雅黑" size="13px" weight="400" font-style="" opacity="1" y="14.875" transform="rotate(0)"><tspan id="SvgjsTspan1145" dy="16" x="50"><tspan id="SvgjsTspan1146" style="text-decoration:;">发送GET请求</tspan></tspan></text></g></g><g id="SvgjsG1147" transform="translate(89.06770833333348,693.1284722222222)"><path id="SvgjsPath1148" d="M 0 30.25L 60 0L 120 30.25L 60 60.5Z" stroke="rgba(50,50,50,1)" stroke-width="2" fill-opacity="1" fill="#ffffff"></path><g id="SvgjsG1149"><text id="SvgjsText1150" font-family="微软雅黑" text-anchor="middle" font-size="13px" width="100px" fill="#323232" font-weight="400" align="middle" lineHeight="125%" anchor="middle" family="微软雅黑" size="13px" weight="400" font-style="" opacity="1" y="19.927500000000002" transform="rotate(0)"><tspan id="SvgjsTspan1151" dy="16" x="60"><tspan id="SvgjsTspan1152" style="text-decoration:;">是否鉴权</tspan></tspan></text></g></g><g id="SvgjsG1153" transform="translate(327.0677083333335,693.1284722222223)"><path id="SvgjsPath1154" d="M 0 0L 100 0L 100 70L 0 70Z" stroke="rgba(50,50,50,1)" stroke-width="2" fill-opacity="1" fill="#ffffff"></path><g id="SvgjsG1155"><text id="SvgjsText1156" font-family="微软雅黑" text-anchor="middle" font-size="13px" width="80px" fill="#323232" font-weight="400" align="middle" lineHeight="125%" anchor="middle" family="微软雅黑" size="13px" weight="400" font-style="" opacity="1" y="24.375" transform="rotate(0)"><tspan id="SvgjsTspan1157" dy="16" x="50"><tspan id="SvgjsTspan1158" style="text-decoration:;">加入Token</tspan></tspan></text></g></g><g id="SvgjsG1159"><path id="SvgjsPath1160" d="M149.06770833333348 582.878472222221L149.06770833333348 604.8784722222213L149.06770833333348 604.8784722222213L149.06770833333348 624.2784722222214" stroke="#323232" stroke-width="2" fill="none" marker-end="url(#SvgjsMarker1161)"></path></g><g id="SvgjsG1163"><path id="SvgjsPath1164" d="M149.06770833333348 670.3784722222214L149.06770833333348 681.2534722222217L149.06770833333348 681.2534722222217L149.06770833333348 689.5284722222221" stroke="#323232" stroke-width="2" fill="none" marker-end="url(#SvgjsMarker1165)"></path></g><g id="SvgjsG1167"><path id="SvgjsPath1168" d="M210.06770833333348 723.3784722222222L268.0677083333335 723.3784722222222L268.0677083333335 728.1284722222223L323.46770833333346 728.1284722222223" stroke="#323232" stroke-width="2" fill="none" marker-end="url(#SvgjsMarker1169)"></path><rect id="SvgjsRect1171" width="13" height="16" x="261.5677083333335" y="716.4534722222222" fill="#ffffff"></rect><text id="SvgjsText1172" font-family="微软雅黑" text-anchor="middle" font-size="13px" width="13px" fill="#323232" font-weight="400" align="top" lineHeight="16px" anchor="middle" family="微软雅黑" size="13px" weight="400" font-style="" opacity="1" y="713.8284722222222" transform="rotate(0)"><tspan id="SvgjsTspan1173" dy="16" x="268.0677083333335"><tspan id="SvgjsTspan1174" style="text-decoration:;">是</tspan></tspan></text></g><g id="SvgjsG1175"><path id="SvgjsPath1176" d="M149.06770833333348 754.6284722222222L149.06770833333348 765.5034722222226L149.06770833333348 765.5034722222226L149.06770833333348 773.7784722222231" stroke="#323232" stroke-width="2" fill="none" marker-end="url(#SvgjsMarker1177)"></path><rect id="SvgjsRect1179" width="13" height="16" x="142.56770833333348" y="756.2034722222226" fill="#ffffff"></rect><text id="SvgjsText1180" font-family="微软雅黑" text-anchor="middle" font-size="13px" width="13px" fill="#323232" font-weight="400" align="top" lineHeight="16px" anchor="middle" family="微软雅黑" size="13px" weight="400" font-style="" opacity="1" y="753.5784722222226" transform="rotate(0)"><tspan id="SvgjsTspan1181" dy="16" x="149.06770833333348"><tspan id="SvgjsTspan1182" style="text-decoration:;">否</tspan></tspan></text></g><g id="SvgjsG1183"><path id="SvgjsPath1184" d="M377.0677083333335 764.1284722222223L377.0677083333335 802.8784722222231L202.6677083333335 802.8784722222231" stroke="#323232" stroke-width="2" fill="none" marker-end="url(#SvgjsMarker1185)"></path></g><g id="SvgjsG1187" transform="translate(99.06770833333348,859.8784722222226)"><path id="SvgjsPath1188" d="M 0 0L 100 0L 100 52L 0 52Z" stroke="rgba(50,50,50,1)" stroke-width="2" fill-opacity="1" fill="#ffffff"></path><g id="SvgjsG1189"><text id="SvgjsText1190" font-family="微软雅黑" text-anchor="middle" font-size="13px" width="80px" fill="#323232" font-weight="400" align="middle" lineHeight="125%" anchor="middle" family="微软雅黑" size="13px" weight="400" font-style="" opacity="1" y="15.375" transform="rotate(0)"><tspan id="SvgjsTspan1191" dy="16" x="50"><tspan id="SvgjsTspan1192" style="text-decoration:;">获取比特流</tspan></tspan></text></g></g><g id="SvgjsG1193" transform="translate(99.06770833333348,936.3784722222249)"><path id="SvgjsPath1194" d="M 0 0L 100 0L 100 52L 0 52Z" stroke="rgba(50,50,50,1)" stroke-width="2" fill-opacity="1" fill="#ffffff"></path><g id="SvgjsG1195"><text id="SvgjsText1196" font-family="微软雅黑" text-anchor="middle" font-size="13px" width="80px" fill="#323232" font-weight="400" align="middle" lineHeight="125%" anchor="middle" family="微软雅黑" size="13px" weight="400" font-style="" opacity="1" y="15.375" transform="rotate(0)"><tspan id="SvgjsTspan1197" dy="16" x="50"><tspan id="SvgjsTspan1198" style="text-decoration:;">存入本地</tspan></tspan></text></g></g><g id="SvgjsG1199"><path id="SvgjsPath1200" d="M149.06770833333348 829.3784722222233L149.06770833333348 844.128472222223L149.06770833333348 844.128472222223L149.06770833333348 856.2784722222226" stroke="#323232" stroke-width="2" fill="none" marker-end="url(#SvgjsMarker1201)"></path></g><g id="SvgjsG1203"><path id="SvgjsPath1204" d="M149.06770833333348 912.8784722222231L149.06770833333348 924.128472222224L149.06770833333348 924.128472222224L149.06770833333348 932.7784722222249" stroke="#323232" stroke-width="2" fill="none" marker-end="url(#SvgjsMarker1205)"></path></g><g id="SvgjsG1207" transform="translate(690.567708333333,462.87847222222183)"><path id="SvgjsPath1208" d="M 0 0L 100 0L 100 70L 0 70L 0 0ZM 16.666666666666668 0L 16.666666666666668 70M 0 14L 100 14" stroke="rgba(50,50,50,1)" stroke-width="2" fill-opacity="1" fill="#ffffff"></path><g id="SvgjsG1209"><text id="SvgjsText1210" font-family="微软雅黑" text-anchor="middle" font-size="13px" width="84px" fill="#323232" font-weight="400" align="middle" lineHeight="125%" anchor="middle" family="微软雅黑" size="13px" weight="400" font-style="" opacity="1" y="31.375" transform="rotate(0)"><tspan id="SvgjsTspan1211" dy="16" x="58.66666666666667"><tspan id="SvgjsTspan1212" style="text-decoration:;">meta数据</tspan></tspan></text></g></g><g id="SvgjsG1213"><path id="SvgjsPath1214" d="M428.0677083333335 406.8784722222221L740.567708333333 406.8784722222221L740.567708333333 459.2784722222218" stroke="#323232" stroke-width="2" fill="none" marker-end="url(#SvgjsMarker1215)"></path></g><g id="SvgjsG1217"><path id="SvgjsPath1218" d="M428.0677083333335 497.87847222222194L558.8177083333333 497.87847222222194L558.8177083333333 497.8784722222222L686.9677083333331 497.8784722222222" stroke="#323232" stroke-width="2" fill="none" marker-end="url(#SvgjsMarker1219)"></path></g><g id="SvgjsG1221"><path id="SvgjsPath1222" d="M428.0677083333335 588.8784722222221L740.567708333333 588.8784722222221L740.567708333333 536.4784722222221" stroke="#323232" stroke-width="2" fill="none" marker-end="url(#SvgjsMarker1223)"></path></g><g id="SvgjsG1225" transform="translate(690.567708333333,613.6284722222213)"><path id="SvgjsPath1226" d="M 0 0L 100 0L 100 70L 0 70L 0 0ZM 16.666666666666668 0L 16.666666666666668 70M 0 14L 100 14" stroke="rgba(50,50,50,1)" stroke-width="2" fill-opacity="1" fill="#ffffff"></path><g id="SvgjsG1227"><text id="SvgjsText1228" font-family="微软雅黑" text-anchor="middle" font-size="13px" width="84px" fill="#323232" font-weight="400" align="middle" lineHeight="125%" anchor="middle" family="微软雅黑" size="13px" weight="400" font-style="" opacity="1" y="31.375" transform="rotate(0)"><tspan id="SvgjsTspan1229" dy="16" x="58.66666666666667"><tspan id="SvgjsTspan1230" style="text-decoration:;">链接</tspan></tspan></text></g></g><g id="SvgjsG1231"><path id="SvgjsPath1232" d="M200.06770833333348 648.6284722222214L444.81770833333326 648.6284722222214L444.81770833333326 648.6284722222217L686.9677083333331 648.6284722222217" stroke="#323232" stroke-width="2" fill="none" marker-end="url(#SvgjsMarker1233)"></path></g><g id="SvgjsG1235" transform="translate(690.567708333333,850.8784722222226)"><path id="SvgjsPath1236" d="M 0 0L 100 0L 100 70L 0 70L 0 0ZM 16.666666666666668 0L 16.666666666666668 70M 0 14L 100 14" stroke="rgba(50,50,50,1)" stroke-width="2" fill-opacity="1" fill="#ffffff"></path><g id="SvgjsG1237"><text id="SvgjsText1238" font-family="微软雅黑" text-anchor="middle" font-size="13px" width="84px" fill="#323232" font-weight="400" align="middle" lineHeight="125%" anchor="middle" family="微软雅黑" size="13px" weight="400" font-style="" opacity="1" y="31.375" transform="rotate(0)"><tspan id="SvgjsTspan1239" dy="16" x="58.66666666666667"><tspan id="SvgjsTspan1240" style="text-decoration:;">base64</tspan></tspan></text></g></g><g id="SvgjsG1241" transform="translate(690.567708333333,927.3784722222249)"><path id="SvgjsPath1242" d="M 0 0L 100 0L 100 70L 0 70L 0 0ZM 16.666666666666668 0L 16.666666666666668 70M 0 14L 100 14" stroke="rgba(50,50,50,1)" stroke-width="2" fill-opacity="1" fill="#ffffff"></path><g id="SvgjsG1243"><text id="SvgjsText1244" font-family="微软雅黑" text-anchor="middle" font-size="13px" width="84px" fill="#323232" font-weight="400" align="middle" lineHeight="125%" anchor="middle" family="微软雅黑" size="13px" weight="400" font-style="" opacity="1" y="31.375" transform="rotate(0)"><tspan id="SvgjsTspan1245" dy="16" x="58.66666666666667"><tspan id="SvgjsTspan1246" style="text-decoration:;">本地地址</tspan></tspan></text></g></g><g id="SvgjsG1247"><path id="SvgjsPath1248" d="M200.06770833333348 885.8784722222226L444.81770833333326 885.8784722222226L444.81770833333326 885.8784722222226L686.9677083333331 885.8784722222226" stroke="#323232" stroke-width="2" fill="none" marker-end="url(#SvgjsMarker1249)"></path></g><g id="SvgjsG1251"><path id="SvgjsPath1252" d="M200.06770833333348 962.3784722222249L444.81770833333326 962.3784722222249L444.81770833333326 962.3784722222249L686.9677083333331 962.3784722222249" stroke="#323232" stroke-width="2" fill="none" marker-end="url(#SvgjsMarker1253)"></path></g><g id="SvgjsG1255" transform="translate(690.567708333333,259.21180555555543)"><path id="SvgjsPath1256" d="M 15 0L 88.33333333333333 0C 103.18181818181819 0 103.18181818181819 70 88.33333333333333 70L 15 70C -5 70 -5 0 15 0ZM 88.33333333333333 0C 73.75 0 73.75 70 88.33333333333333 70C 73.75 70 73.75 0 88.33333333333333 0" stroke="rgba(50,50,50,1)" stroke-width="2" fill-opacity="1" fill="#ffffff"></path><g id="SvgjsG1257"><text id="SvgjsText1258" font-family="微软雅黑" text-anchor="middle" font-size="13px" width="80px" fill="#323232" font-weight="400" align="middle" lineHeight="125%" anchor="middle" family="微软雅黑" size="13px" weight="400" font-style="" opacity="1" y="24.375" transform="rotate(0)"><tspan id="SvgjsTspan1259" dy="16" x="40"><tspan id="SvgjsTspan1260" style="text-decoration:;">MySQL实体</tspan></tspan></text></g></g><g id="SvgjsG1261" transform="translate(930.9843749999989,142.76736111111106)"><path id="SvgjsPath1262" d="M 0 0L 250 0L 250 905.5277777777776L 0 905.5277777777776Z" stroke="rgba(50,50,50,1)" stroke-width="2" fill="none"></path><path id="SvgjsPath1263" d="M 0 0L 250 0L 250 40L 0 40Z" stroke="rgba(50,50,50,1)" stroke-width="2" fill-opacity="1" fill="#ffffff"></path><g id="SvgjsG1264"><text id="SvgjsText1265" font-family="微软雅黑" text-anchor="middle" font-size="16px" width="230px" fill="#323232" font-weight="400" align="middle" lineHeight="125%" anchor="middle" family="微软雅黑" size="16px" weight="400" font-style="" opacity="1" y="6" transform="rotate(0)"><tspan id="SvgjsTspan1266" dy="20" x="125"><tspan id="SvgjsTspan1267" style="text-decoration:;">模型</tspan></tspan></text></g></g><g id="SvgjsG1268" transform="translate(930.9843749999989,182.76736111111106)"><path id="SvgjsPath1269" d="M 0 0L 250 0L 250 865.5277777777776L 0 865.5277777777776Z" stroke="rgba(50,50,50,1)" stroke-width="2" fill="none"></path><path id="SvgjsPath1270" d="M 0 0L 250 0L 250 30L 0 30Z" stroke="rgba(50,50,50,1)" stroke-width="2" fill-opacity="1" fill="#ffffff"></path><g id="SvgjsG1271"><text id="SvgjsText1272" font-family="微软雅黑" text-anchor="middle" font-size="13px" width="230px" fill="#323232" font-weight="400" align="middle" lineHeight="125%" anchor="middle" family="微软雅黑" size="13px" weight="400" font-style="" opacity="1" y="4.375" transform="rotate(0)"><tspan id="SvgjsTspan1273" dy="16" x="125"><tspan id="SvgjsTspan1274" style="text-decoration:;">ORM</tspan></tspan></text></g></g><g id="SvgjsG1275" transform="translate(1001.5677083333328,377.89236111111114)"><path id="SvgjsPath1276" d="M 0 0L 112.16666666666742 0L 112.16666666666742 57.97222222222183L 0 57.97222222222183Z" stroke="rgba(50,50,50,1)" stroke-width="2" fill-opacity="1" fill="#ffffff"></path><g id="SvgjsG1277"><text id="SvgjsText1278" font-family="微软雅黑" text-anchor="middle" font-size="13px" width="93px" fill="#323232" font-weight="400" align="middle" lineHeight="125%" anchor="middle" family="微软雅黑" size="13px" weight="400" font-style="" opacity="1" y="18.361111111110915" transform="rotate(0)"><tspan id="SvgjsTspan1279" dy="16" x="56.5"><tspan id="SvgjsTspan1280" style="text-decoration:;">href</tspan></tspan></text></g></g><g id="SvgjsG1281" transform="translate(1001.5677083333328,468.8923611111109)"><path id="SvgjsPath1282" d="M 0 0L 112.16666666666742 0L 112.16666666666742 57.97222222222183L 0 57.97222222222183Z" stroke="rgba(50,50,50,1)" stroke-width="2" fill-opacity="1" fill="#ffffff"></path><g id="SvgjsG1283"><text id="SvgjsText1284" font-family="微软雅黑" text-anchor="middle" font-size="13px" width="93px" fill="#323232" font-weight="400" align="middle" lineHeight="125%" anchor="middle" family="微软雅黑" size="13px" weight="400" font-style="" opacity="1" y="18.361111111110915" transform="rotate(0)"><tspan id="SvgjsTspan1285" dy="16" x="56.5"><tspan id="SvgjsTspan1286" style="text-decoration:;">img</tspan></tspan></text></g></g><g id="SvgjsG1287" transform="translate(1001.5677083333328,547.2743055555552)"><path id="SvgjsPath1288" d="M 0 0L 112.16666666666742 0L 112.16666666666742 57.97222222222183L 0 57.97222222222183Z" stroke="rgba(50,50,50,1)" stroke-width="2" fill-opacity="1" fill="#ffffff"></path><g id="SvgjsG1289"><text id="SvgjsText1290" font-family="微软雅黑" text-anchor="middle" font-size="13px" width="93px" fill="#323232" font-weight="400" align="middle" lineHeight="125%" anchor="middle" family="微软雅黑" size="13px" weight="400" font-style="" opacity="1" y="18.361111111110915" transform="rotate(0)"><tspan id="SvgjsTspan1291" dy="16" x="56.5"><tspan id="SvgjsTspan1292" style="text-decoration:;">title</tspan></tspan></text></g></g><g id="SvgjsG1293" transform="translate(1001.5677083333328,619.6423611111103)"><path id="SvgjsPath1294" d="M 0 0L 112.16666666666742 0L 112.16666666666742 57.97222222222183L 0 57.97222222222183Z" stroke="rgba(50,50,50,1)" stroke-width="2" fill-opacity="1" fill="#ffffff"></path><g id="SvgjsG1295"><text id="SvgjsText1296" font-family="微软雅黑" text-anchor="middle" font-size="13px" width="93px" fill="#323232" font-weight="400" align="middle" lineHeight="125%" anchor="middle" family="微软雅黑" size="13px" weight="400" font-style="" opacity="1" y="18.361111111110915" transform="rotate(0)"><tspan id="SvgjsTspan1297" dy="16" x="56.5"><tspan id="SvgjsTspan1298" style="text-decoration:;">link</tspan></tspan></text></g></g><g id="SvgjsG1299" transform="translate(1001.5677083333328,856.8923611111117)"><path id="SvgjsPath1300" d="M 0 0L 112.16666666666742 0L 112.16666666666742 57.97222222222183L 0 57.97222222222183Z" stroke="rgba(50,50,50,1)" stroke-width="2" fill-opacity="1" fill="#ffffff"></path><g id="SvgjsG1301"><text id="SvgjsText1302" font-family="微软雅黑" text-anchor="middle" font-size="13px" width="93px" fill="#323232" font-weight="400" align="middle" lineHeight="125%" anchor="middle" family="微软雅黑" size="13px" weight="400" font-style="" opacity="1" y="18.361111111110915" transform="rotate(0)"><tspan id="SvgjsTspan1303" dy="16" x="56.5"><tspan id="SvgjsTspan1304" style="text-decoration:;">img base64</tspan></tspan></text></g></g><g id="SvgjsG1305" transform="translate(1001.5677083333328,933.3923611111139)"><path id="SvgjsPath1306" d="M 0 0L 112.16666666666742 0L 112.16666666666742 57.97222222222183L 0 57.97222222222183Z" stroke="rgba(50,50,50,1)" stroke-width="2" fill-opacity="1" fill="#ffffff"></path><g id="SvgjsG1307"><text id="SvgjsText1308" font-family="微软雅黑" text-anchor="middle" font-size="13px" width="93px" fill="#323232" font-weight="400" align="middle" lineHeight="125%" anchor="middle" family="微软雅黑" size="13px" weight="400" font-style="" opacity="1" y="18.361111111110915" transform="rotate(0)"><tspan id="SvgjsTspan1309" dy="16" x="56.5"><tspan id="SvgjsTspan1310" style="text-decoration:;">os path</tspan></tspan></text></g></g><g id="SvgjsG1311"><path id="SvgjsPath1312" d="M791.567708333333 497.87847222222183L896.067708333333 497.87847222222183L896.067708333333 406.87847222222206L997.9677083333329 406.87847222222206" stroke="#323232" stroke-width="2" fill="none" marker-end="url(#SvgjsMarker1313)"></path></g><g id="SvgjsG1315"><path id="SvgjsPath1316" d="M791.567708333333 497.87847222222183L896.067708333333 497.87847222222183L896.067708333333 497.87847222222183L997.9677083333329 497.87847222222183" stroke="#323232" stroke-width="2" fill="none" marker-end="url(#SvgjsMarker1317)"></path></g><g id="SvgjsG1319"><path id="SvgjsPath1320" d="M791.567708333333 497.87847222222183L896.067708333333 497.87847222222183L896.067708333333 576.2604166666661L997.9677083333329 576.2604166666661" stroke="#323232" stroke-width="2" fill="none" marker-end="url(#SvgjsMarker1321)"></path></g><g id="SvgjsG1323"><path id="SvgjsPath1324" d="M791.567708333333 648.6284722222213L896.067708333333 648.6284722222213L896.067708333333 648.6284722222213L997.9677083333329 648.6284722222213" stroke="#323232" stroke-width="2" fill="none" marker-end="url(#SvgjsMarker1325)"></path></g><g id="SvgjsG1327"><path id="SvgjsPath1328" d="M791.567708333333 885.8784722222226L896.067708333333 885.8784722222226L896.067708333333 885.8784722222226L997.9677083333329 885.8784722222226" stroke="#323232" stroke-width="2" fill="none" marker-end="url(#SvgjsMarker1329)"></path></g><g id="SvgjsG1331"><path id="SvgjsPath1332" d="M791.567708333333 962.3784722222249L896.067708333333 962.3784722222249L896.067708333333 962.3784722222249L997.9677083333329 962.3784722222249" stroke="#323232" stroke-width="2" fill="none" marker-end="url(#SvgjsMarker1333)"></path></g></svg>